<svg id="Layer_1" data-name="Layer 1" xmlns="http://www.w3.org/2000/svg" viewBox="0 0 177.69 162.38"><defs><style>.cls-1{fill:none;stroke:#d1b31f;stroke-miterlimit:10;}.cls-2{fill:#e8c864;}.cls-3{font-size:19.53px;fill:#efc75e;font-family:Cambria;}.cls-4{letter-spacing:0em;}.cls-5{letter-spacing:-0.04em;}.cls-6{letter-spacing:-0.06em;}.cls-7{font-size:9.14px;fill:#d98554;font-family:MyriadPro-SemiboldIt, MyriadPro SemiboldIt;font-weight:600;font-style:italic;}.cls-8{letter-spacing:0em;}</style></defs><path class="cls-1" d="M245.58,300.25v24h-5.49S211.9,301.7,227.64,265s60.78-39.95,82.39-16.34,19.4,57.7-.74,76.59" transform="translate(-188.16 -233.13)"/><polyline class="cls-1" points="109.05 79.06 109.05 91.59 120.31 91.59 120.31 44 108.58 43.69 101.43 39.44 101.43 92.13 98.82 92.13 98.82 11.98 91.95 7.82 78.29 15.93 78.5 91.72 86.53 92.13 86.53 66.66 64.35 66.53 64.49 91.79 74.72 92.13 74.72 24.85 64.42 30.91 64.42 58.01 53.03 65.3 53.03 91.09"/><polygon class="cls-2" points="109.27 42.07 102.46 38.15 113.58 38.07 119.98 42.29 109.27 42.07"/><polygon class="cls-2" points="102.46 41.46 102.46 47.93 108.22 51.41 118.66 51.41 118.66 45.28 108.5 45.21 102.46 41.46"/><polygon class="cls-2" points="102.46 58.93 102.46 65.67 108.16 68.73 118.66 68.67 118.66 61.79 108.22 61.92 102.46 58.93"/><polygon class="cls-2" points="102.46 50.34 102.46 57.08 108.16 60.15 118.66 60.08 118.66 53.2 108.22 53.34 102.46 50.34"/><polygon class="cls-2" points="79.87 16.74 91.89 9.66 97.45 13.2 97.45 21.51 91.54 17.9 79.87 25.05 79.87 16.74"/><polygon class="cls-2" points="79.87 26.5 91.89 19.42 97.45 22.96 97.45 29.68 91.95 26.42 79.87 33.43 79.87 26.5"/><polygon class="cls-2" points="79.87 35.14 91.89 28.05 97.45 31.6 97.45 38.32 91.95 35.06 79.87 42.07 79.87 35.14"/><polygon class="cls-2" points="79.87 43.77 91.89 36.69 97.45 40.23 97.45 46.95 91.95 43.69 79.87 50.7 79.87 43.77"/><polygon class="cls-2" points="79.87 52.5 91.89 45.41 97.45 48.95 97.45 55.68 91.95 52.42 79.87 59.43 79.87 52.5"/><polygon class="cls-2" points="52.95 36.97 62.98 31.18 62.98 39.15 52.95 45.07 52.95 36.97"/><polygon class="cls-2" points="52.95 46.08 62.98 40.3 62.98 48.26 52.95 54.19 52.95 46.08"/><polygon class="cls-2" points="52.95 55.19 62.98 49.09 62.98 57.37 52.95 63.88 52.95 55.19"/><text class="cls-3" transform="translate(0 114.26) scale(1.27 1)">LÊ T<tspan class="cls-4" x="37.59" y="0">H</tspan><tspan class="cls-5" x="51.01" y="0">U</tspan><tspan x="62.92" y="0">ẬN PH</tspan><tspan class="cls-6" x="117.17" y="0">Á</tspan><tspan x="128.2" y="0">T</tspan></text><text class="cls-7" transform="translate(27.71 127.39) scale(0.92 1)">Ngôi nhà của bạn. <tspan class="cls-8" x="70.68" y="0">Đ</tspan><tspan x="76.85" y="0">ối tác của bạn</tspan></text></svg>